<mxfile host="app.diagrams.net" modified="2020-12-16T03:14:16.435Z" agent="5.0 (Windows NT 10.0; Win64; x64) AppleWebKit/537.36 (KHTML, like Gecko) Chrome/87.0.4280.88 Safari/537.36" etag="OjbYHZgX-US0XlMR1d-9" version="14.0.3" type="github">
  <diagram name="Page-1" id="42789a77-a242-8287-6e28-9cd8cfd52e62">
    <mxGraphModel dx="1422" dy="794" grid="1" gridSize="10" guides="1" tooltips="1" connect="1" arrows="1" fold="1" page="1" pageScale="1" pageWidth="1100" pageHeight="850" background="#ffffff" math="0" shadow="0">
      <root>
        <mxCell id="0" />
        <mxCell id="1" parent="0" />
        <mxCell id="m6W_akmNrxcxIRO573pG-1" value="事件" style="ellipse;whiteSpace=wrap;html=1;" vertex="1" parent="1">
          <mxGeometry x="350" y="190" width="120" height="80" as="geometry" />
        </mxCell>
        <mxCell id="m6W_akmNrxcxIRO573pG-2" value="通讯录人员" style="ellipse;whiteSpace=wrap;html=1;" vertex="1" parent="1">
          <mxGeometry x="210" y="385" width="120" height="80" as="geometry" />
        </mxCell>
        <mxCell id="m6W_akmNrxcxIRO573pG-3" value="通讯录机构" style="ellipse;whiteSpace=wrap;html=1;" vertex="1" parent="1">
          <mxGeometry x="620" y="385" width="120" height="80" as="geometry" />
        </mxCell>
        <mxCell id="m6W_akmNrxcxIRO573pG-4" value="" style="endArrow=none;html=1;exitX=1;exitY=0.5;exitDx=0;exitDy=0;" edge="1" parent="1" source="m6W_akmNrxcxIRO573pG-2" target="m6W_akmNrxcxIRO573pG-3">
          <mxGeometry width="50" height="50" relative="1" as="geometry">
            <mxPoint x="520" y="530" as="sourcePoint" />
            <mxPoint x="570" y="480" as="targetPoint" />
          </mxGeometry>
        </mxCell>
      </root>
    </mxGraphModel>
  </diagram>
</mxfile>
